<?xml version="1.0" encoding="UTF-8" standalone="no"?>
<svg version="1.1" xmlns="http://www.w3.org/2000/svg" xmlns:xlink="http://www.w3.org/1999/xlink" width="768" height="768">
	<defs>
		<clipPath id="clip_dp_001" clipPathUnits="userSpaceOnUse" clip-rule="nonzero">
			<path d="M 0,0 L 768,0 L 768,768 L 0,768 Z " clip-rule="nonzero"/>
		</clipPath>
	</defs>
	<g id="dp_dp001" clip-path="url(#clip_dp_001)">
		<g id="clip">
			<path id="dp_path002" fill="#322d2d" fill-rule="evenodd" stroke="none" stroke-width="0" d="M 236.375,374.651 L 196.019,374.651 C 194.977,374.651 194.132,375.496 194.132,376.537 L 194.132,396.268 C 194.132,397.309 194.977,398.156 196.019,398.156 L 211.761,398.156 L 211.761,422.671 C 211.761,422.671 208.227,423.875 198.453,423.875 C 186.924,423.875 170.817,419.663 170.817,384.244 C 170.817,348.819 187.589,344.157 203.335,344.157 C 216.964,344.157 222.836,346.557 226.572,347.713 C 227.747,348.072 228.832,346.904 228.832,345.863 L 233.335,326.799 C 233.335,326.311 233.169,325.724 232.615,325.325 C 231.097,324.243 221.84,319.063 198.453,319.063 C 171.513,319.063 143.877,330.525 143.877,385.625 C 143.877,440.727 175.517,448.937 202.18,448.937 C 224.256,448.937 237.648,439.504 237.648,439.504 C 238.2,439.2 238.26,438.428 238.26,438.075 L 238.26,376.537 C 238.26,375.496 237.416,374.651 236.375,374.651"/>
			<path id="dp_path003" fill="#322d2d" fill-rule="evenodd" stroke="none" stroke-width="0" d="M 444.353,325.665 C 444.353,324.616 443.521,323.768 442.48,323.768 L 419.757,323.768 C 418.719,323.768 417.876,324.616 417.876,325.665 C 417.876,325.671 417.881,369.579 417.881,369.579 L 382.463,369.579 L 382.463,325.665 C 382.463,324.616 381.627,323.768 380.587,323.768 L 357.865,323.768 C 356.832,323.768 355.989,324.616 355.989,325.665 L 355.989,444.569 C 355.989,445.617 356.832,446.471 357.865,446.471 L 380.587,446.471 C 381.627,446.471 382.463,445.617 382.463,444.569 L 382.463,393.709 L 417.881,393.709 C 417.881,393.709 417.82,444.565 417.82,444.569 C 417.82,445.617 418.661,446.471 419.703,446.471 L 442.479,446.471 C 443.519,446.471 444.351,445.617 444.353,444.569 Z "/>
			<path id="dp_path004" fill="#322d2d" fill-rule="evenodd" stroke="none" stroke-width="0" d="M 279.253,341.268 C 279.253,333.087 272.693,326.475 264.6,326.475 C 256.515,326.475 249.951,333.087 249.951,341.268 C 249.951,349.441 256.515,356.072 264.6,356.072 C 272.693,356.072 279.253,349.441 279.253,341.268"/>
			<path id="dp_path005" fill="#322d2d" fill-rule="evenodd" stroke="none" stroke-width="0" d="M 277.629,419.487 L 277.629,364.6 C 277.629,363.559 276.789,362.707 275.749,362.707 L 253.099,362.707 C 252.059,362.707 251.129,363.777 251.129,364.82 L 251.129,443.456 C 251.129,445.765 252.569,446.453 254.433,446.453 L 274.841,446.453 C 277.08,446.453 277.629,445.353 277.629,443.419 Z "/>
			<path id="dp_path006" fill="#322d2d" fill-rule="evenodd" stroke="none" stroke-width="0" d="M 530.709,362.885 L 508.161,362.885 C 507.127,362.885 506.285,363.737 506.285,364.787 L 506.285,423.088 C 506.285,423.088 500.556,427.28 492.425,427.28 C 484.295,427.28 482.137,423.591 482.137,415.629 L 482.137,364.787 C 482.137,363.737 481.297,362.885 480.263,362.885 L 457.377,362.885 C 456.345,362.885 455.499,363.737 455.499,364.787 L 455.499,419.479 C 455.499,443.125 468.677,448.911 486.807,448.911 C 501.681,448.911 513.673,440.693 513.673,440.693 C 513.673,440.693 514.243,445.024 514.503,445.537 C 514.76,446.049 515.433,446.567 516.161,446.567 L 530.72,446.503 C 531.752,446.503 532.599,445.649 532.599,444.604 L 532.591,364.787 C 532.591,363.737 531.748,362.885 530.709,362.885"/>
			<path id="dp_path007" fill="#322d2d" fill-rule="evenodd" stroke="none" stroke-width="0" d="M 583.445,427.207 C 575.624,426.968 570.319,423.42 570.319,423.42 L 570.319,385.765 C 570.319,385.765 575.552,382.557 581.973,381.984 C 590.093,381.257 597.917,383.709 597.917,403.08 C 597.917,423.505 594.387,427.537 583.445,427.207M 592.339,360.213 C 579.532,360.213 570.821,365.928 570.821,365.928 L 570.821,325.664 C 570.821,324.615 569.981,323.767 568.947,323.767 L 546.159,323.767 C 545.123,323.767 544.281,324.615 544.281,325.664 L 544.281,444.568 C 544.281,445.617 545.123,446.471 546.161,446.471 L 561.972,446.471 C 562.684,446.471 563.223,446.103 563.621,445.46 C 564.015,444.821 564.581,439.979 564.581,439.979 C 564.581,439.979 573.899,448.808 591.537,448.808 C 612.247,448.808 624.123,438.304 624.123,401.653 C 624.123,365.003 605.155,360.213 592.339,360.213"/>
			<path id="dp_path008" fill="#322d2d" fill-rule="evenodd" stroke="none" stroke-width="0" d="M 342.936,362.696 L 325.891,362.696 C 325.891,362.696 325.865,340.183 325.865,340.177 C 325.865,339.325 325.427,338.899 324.44,338.899 L 301.213,338.899 C 300.311,338.899 299.825,339.297 299.825,340.165 L 299.825,363.435 C 299.825,363.435 288.185,366.244 287.399,366.472 C 286.615,366.699 286.037,367.421 286.037,368.284 L 286.037,382.907 C 286.037,383.957 286.877,384.807 287.916,384.807 L 299.825,384.807 L 299.825,419.985 C 299.825,446.113 318.153,448.68 330.52,448.68 C 336.172,448.68 342.932,446.865 344.048,446.453 C 344.723,446.205 345.116,445.507 345.116,444.749 L 345.135,428.663 C 345.135,427.613 344.248,426.764 343.251,426.764 C 342.257,426.764 339.716,427.168 337.1,427.168 C 328.728,427.168 325.891,423.276 325.891,418.237 C 325.891,413.201 325.889,384.807 325.889,384.807 L 342.936,384.807 C 343.975,384.807 344.817,383.957 344.817,382.907 L 344.817,364.591 C 344.817,363.541 343.975,362.696 342.936,362.696"/>
		</g>
	</g>
</svg>