<?xml version="1.0" encoding="UTF-8" standalone="no"?>
<svg version="1.1" xmlns="http://www.w3.org/2000/svg" xmlns:xlink="http://www.w3.org/1999/xlink" width="596.572" height="596.572">
	<defs>
		<clipPath id="clip_dp_001" clipPathUnits="userSpaceOnUse" clip-rule="nonzero">
			<path d="M 0,0 L 595.2,0 L 595.2,595.2 L 0,595.2 Z " clip-rule="nonzero"/>
		</clipPath>
	</defs>
	<g id="dp_dp001" clip-path="url(#clip_dp_001)">
		<g id="clip">
			<path id="dp_path002" fill="#322d2d" fill-rule="evenodd" stroke="none" stroke-width="0" d="M 149.975,288.251 L 109.619,288.251 C 108.577,288.251 107.732,289.096 107.732,290.137 L 107.732,309.868 C 107.732,310.909 108.577,311.756 109.619,311.756 L 125.361,311.756 L 125.361,336.271 C 125.361,336.271 121.827,337.475 112.053,337.475 C 100.524,337.475 84.4173,333.263 84.4173,297.844 C 84.4173,262.419 101.189,257.757 116.935,257.757 C 130.564,257.757 136.436,260.157 140.172,261.313 C 141.347,261.672 142.432,260.504 142.432,259.463 L 146.935,240.399 C 146.935,239.911 146.769,239.324 146.215,238.925 C 144.697,237.843 135.44,232.663 112.053,232.663 C 85.1133,232.663 57.4773,244.125 57.4773,299.225 C 57.4773,354.327 89.1173,362.537 115.78,362.537 C 137.856,362.537 151.248,353.104 151.248,353.104 C 151.8,352.8 151.86,352.028 151.86,351.675 L 151.86,290.137 C 151.86,289.096 151.016,288.251 149.975,288.251"/>
			<path id="dp_path003" fill="#322d2d" fill-rule="evenodd" stroke="none" stroke-width="0" d="M 357.953,239.265 C 357.953,238.216 357.121,237.368 356.08,237.368 L 333.357,237.368 C 332.319,237.368 331.476,238.216 331.476,239.265 C 331.476,239.271 331.481,283.179 331.481,283.179 L 296.063,283.179 L 296.063,239.265 C 296.063,238.216 295.227,237.368 294.187,237.368 L 271.465,237.368 C 270.432,237.368 269.589,238.216 269.589,239.265 L 269.589,358.169 C 269.589,359.217 270.432,360.071 271.465,360.071 L 294.187,360.071 C 295.227,360.071 296.063,359.217 296.063,358.169 L 296.063,307.309 L 331.481,307.309 C 331.481,307.309 331.42,358.165 331.42,358.169 C 331.42,359.217 332.261,360.071 333.303,360.071 L 356.079,360.071 C 357.119,360.071 357.951,359.217 357.953,358.169 Z "/>
			<path id="dp_path004" fill="#322d2d" fill-rule="evenodd" stroke="none" stroke-width="0" d="M 192.853,254.868 C 192.853,246.687 186.293,240.075 178.2,240.075 C 170.115,240.075 163.551,246.687 163.551,254.868 C 163.551,263.041 170.115,269.672 178.2,269.672 C 186.293,269.672 192.853,263.041 192.853,254.868"/>
			<path id="dp_path005" fill="#322d2d" fill-rule="evenodd" stroke="none" stroke-width="0" d="M 191.229,333.087 L 191.229,278.2 C 191.229,277.159 190.389,276.307 189.349,276.307 L 166.699,276.307 C 165.659,276.307 164.729,277.377 164.729,278.42 L 164.729,357.056 C 164.729,359.365 166.169,360.053 168.033,360.053 L 188.441,360.053 C 190.68,360.053 191.229,358.953 191.229,357.019 Z "/>
			<path id="dp_path006" fill="#322d2d" fill-rule="evenodd" stroke="none" stroke-width="0" d="M 444.309,276.485 L 421.761,276.485 C 420.727,276.485 419.885,277.337 419.885,278.387 L 419.885,336.688 C 419.885,336.688 414.156,340.88 406.025,340.88 C 397.895,340.88 395.737,337.191 395.737,329.229 L 395.737,278.387 C 395.737,277.337 394.897,276.485 393.863,276.485 L 370.977,276.485 C 369.945,276.485 369.099,277.337 369.099,278.387 L 369.099,333.079 C 369.099,356.725 382.277,362.511 400.407,362.511 C 415.281,362.511 427.273,354.293 427.273,354.293 C 427.273,354.293 427.843,358.624 428.103,359.137 C 428.36,359.649 429.033,360.167 429.761,360.167 L 444.32,360.103 C 445.352,360.103 446.199,359.249 446.199,358.204 L 446.191,278.387 C 446.191,277.337 445.348,276.485 444.309,276.485"/>
			<path id="dp_path007" fill="#322d2d" fill-rule="evenodd" stroke="none" stroke-width="0" d="M 497.045,340.807 C 489.224,340.568 483.919,337.02 483.919,337.02 L 483.919,299.365 C 483.919,299.365 489.152,296.157 495.573,295.584 C 503.693,294.857 511.517,297.309 511.517,316.68 C 511.517,337.105 507.987,341.137 497.045,340.807M 505.939,273.813 C 493.132,273.813 484.421,279.528 484.421,279.528 L 484.421,239.264 C 484.421,238.215 483.581,237.367 482.547,237.367 L 459.759,237.367 C 458.723,237.367 457.881,238.215 457.881,239.264 L 457.881,358.168 C 457.881,359.217 458.723,360.071 459.761,360.071 L 475.572,360.071 C 476.284,360.071 476.823,359.703 477.221,359.06 C 477.615,358.421 478.181,353.579 478.181,353.579 C 478.181,353.579 487.499,362.408 505.137,362.408 C 525.847,362.408 537.723,351.904 537.723,315.253 C 537.723,278.603 518.755,273.813 505.939,273.813"/>
			<path id="dp_path008" fill="#322d2d" fill-rule="evenodd" stroke="none" stroke-width="0" d="M 256.536,276.296 L 239.491,276.296 C 239.491,276.296 239.465,253.783 239.465,253.777 C 239.465,252.925 239.027,252.499 238.04,252.499 L 214.813,252.499 C 213.911,252.499 213.425,252.897 213.425,253.765 L 213.425,277.035 C 213.425,277.035 201.785,279.844 200.999,280.072 C 200.215,280.299 199.637,281.021 199.637,281.884 L 199.637,296.507 C 199.637,297.557 200.477,298.407 201.516,298.407 L 213.425,298.407 L 213.425,333.585 C 213.425,359.713 231.753,362.28 244.12,362.28 C 249.772,362.28 256.532,360.465 257.648,360.053 C 258.323,359.805 258.716,359.107 258.716,358.349 L 258.735,342.263 C 258.735,341.213 257.848,340.364 256.851,340.364 C 255.857,340.364 253.316,340.768 250.7,340.768 C 242.328,340.768 239.491,336.876 239.491,331.837 C 239.491,326.801 239.489,298.407 239.489,298.407 L 256.536,298.407 C 257.575,298.407 258.417,297.557 258.417,296.507 L 258.417,278.191 C 258.417,277.141 257.575,276.296 256.536,276.296"/>
		</g>
	</g>
</svg>