<?xml version="1.0" encoding="UTF-8" standalone="no"?>
<svg version="1.1" xmlns="http://www.w3.org/2000/svg" xmlns:xlink="http://www.w3.org/1999/xlink" width="160" height="160">
	<defs>
		<clipPath id="clip_dp_001" clipPathUnits="userSpaceOnUse" clip-rule="nonzero">
			<path d="M 0,0 L 160,0 L 160,160 L 0,160 Z " clip-rule="nonzero"/>
		</clipPath>
	</defs>
	<g id="dp_dp001" clip-path="url(#clip_dp_001)">
		<g id="clip">
			<path id="dp_path002" fill="#0060d1" stroke="none" stroke-width="0" d="M 0,80 C 0,35.8187 35.8187,0 80,0 C 124.181,0 160,35.8187 160,80 C 160,124.181 124.181,160 80,160 C 35.8187,160 0,124.181 0,80 Z "/>
			<path id="dp_path003" fill="#0a0a0a" fill-opacity="0.388235" stroke="none" stroke-width="0" d="M 160.003,84 C 158.003,124 128.003,152 98.0027,158 L 42.0027,110 C 14.3973,75.4987 144.003,152 118.003,50 Z "/>
			<path id="dp_path004" fill="white" stroke="none" stroke-width="0" d="M 114.668,49.668 L 45.3347,49.668 C 40.5667,49.668 36.7107,53.5667 36.7107,58.3347 L 36.668,101.668 C 36.668,106.436 40.5667,110.335 45.3347,110.335 L 114.668,110.335 C 119.436,110.335 123.335,106.436 123.335,101.668 L 123.335,58.3347 C 123.335,53.5667 119.436,49.668 114.668,49.668 Z M 75.6707,62.6707 L 84.3373,62.6707 L 84.3373,71.3373 L 75.6707,71.3373 Z M 75.6707,75.668 L 84.3373,75.668 L 84.3373,84.3347 L 75.6707,84.3347 Z M 62.668,62.6707 L 71.3347,62.6707 L 71.3347,71.3373 L 62.668,71.3373 Z M 62.668,75.668 L 71.3347,75.668 L 71.3347,84.3347 L 62.668,84.3347 Z M 58.3373,84.3347 L 49.6707,84.3347 L 49.6707,75.668 L 58.3373,75.668 Z M 58.3373,71.3373 L 49.6707,71.3373 L 49.6707,62.6707 L 58.3373,62.6707 Z M 97.3347,101.668 L 62.668,101.668 L 62.668,93.0013 L 97.3347,93.0013 Z M 97.3347,84.3347 L 88.668,84.3347 L 88.668,75.668 L 97.3347,75.668 Z M 97.3347,71.3373 L 88.668,71.3373 L 88.668,62.6707 L 97.3347,62.6707 Z M 110.337,84.3347 L 101.671,84.3347 L 101.671,75.668 L 110.337,75.668 Z M 110.337,71.3373 L 101.671,71.3373 L 101.671,62.6707 L 110.337,62.6707 Z "/>
		</g>
	</g>
</svg>