<svg xmlns="http://www.w3.org/2000/svg" xmlns:xlink="http://www.w3.org/1999/xlink" viewBox="0 0 650 170">
			<path id="dp_path002" fill="#0060d1" d="M 1,81 C 1,36.8187 36.8187,1 81,1 C 125.181,1 161,36.8187 161,81 C 161,125.181 125.181,161 81,161 C 36.8187,161 1,125.181 1,81 Z "/>
			<path id="dp_path003" fill="#0a0a0a" fill-opacity="0.388235" d="M 161.003,85 C 159.003,125 129.003,153 99.0027,159 L 43.0027,111 C 15.3973,76.4987 145.003,153 119.003,51 Z "/>
			<path id="dp_path004" fill="white" d="M 115.668,50.668 L 46.3347,50.668 C 41.5667,50.668 37.7107,54.5667 37.7107,59.3347 L 37.668,102.668 C 37.668,107.436 41.5667,111.335 46.3347,111.335 L 115.668,111.335 C 120.436,111.335 124.335,107.436 124.335,102.668 L 124.335,59.3347 C 124.335,54.5667 120.436,50.668 115.668,50.668 Z M 76.6707,63.6707 L 85.3373,63.6707 L 85.3373,72.3373 L 76.6707,72.3373 Z M 76.6707,76.668 L 85.3373,76.668 L 85.3373,85.3347 L 76.6707,85.3347 Z M 63.668,63.6707 L 72.3347,63.6707 L 72.3347,72.3373 L 63.668,72.3373 Z M 63.668,76.668 L 72.3347,76.668 L 72.3347,85.3347 L 63.668,85.3347 Z M 59.3373,85.3347 L 50.6707,85.3347 L 50.6707,76.668 L 59.3373,76.668 Z M 59.3373,72.3373 L 50.6707,72.3373 L 50.6707,63.6707 L 59.3373,63.6707 Z M 98.3347,102.668 L 63.668,102.668 L 63.668,94.0013 L 98.3347,94.0013 Z M 98.3347,85.3347 L 89.668,85.3347 L 89.668,76.668 L 98.3347,76.668 Z M 98.3347,72.3373 L 89.668,72.3373 L 89.668,63.6707 L 98.3347,63.6707 Z M 111.337,85.3347 L 102.671,85.3347 L 102.671,76.668 L 111.337,76.668 Z M 111.337,72.3373 L 102.671,72.3373 L 102.671,63.6707 L 111.337,63.6707 Z "/>
			<g id="dp_dp005" transform="matrix(1,0,0,1,199.4,107.6)">
				<path id="dp_path006" fill="white" d="M 33.2307,-40.14 C 27.5,-41.86 22.7707,-43.74 19.04,-45.7893 C 15.3,-47.84 12.42,-50.38 10.3907,-53.4093 C 8.36,-56.44 7.34,-60.12 7.34,-64.4493 C 7.34,-68.7893 8.47067,-72.62 10.7107,-75.94 C 12.96,-79.26 16.1107,-81.8493 20.1507,-83.7 C 24.1907,-85.56 28.7907,-86.48 33.94,-86.48 C 39.34,-86.48 44.1,-85.36 48.22,-83.12 C 52.3307,-80.8693 55.5,-77.8093 57.7307,-73.9493 C 59.96,-70.08 61.08,-65.76 61.08,-61 L 54.3907,-61 C 54.3907,-64.7093 53.5707,-68.0293 51.94,-70.96 C 50.3107,-73.8893 47.9507,-76.18 44.8707,-77.84 C 41.7907,-79.5 38.1507,-80.3293 33.94,-80.3293 C 29.7307,-80.3293 26.1307,-79.6293 23.14,-78.22 C 20.1507,-76.82 17.8907,-74.9293 16.3707,-72.5693 C 14.8507,-70.2093 14.0907,-67.56 14.0907,-64.6293 C 14.0907,-61.82 14.76,-59.3493 16.1,-57.22 C 17.44,-55.0893 19.6507,-53.14 22.74,-51.3893 C 25.82,-49.6293 30,-47.9893 35.3,-46.4693 C 41.2107,-44.7493 46.0707,-42.7893 49.88,-40.6093 C 53.68,-38.42 56.5907,-35.74 58.6,-32.58 C 60.62,-29.4093 61.62,-25.5893 61.62,-21.0893 C 61.62,-16.56 60.46,-12.62 58.14,-9.26 C 55.82,-5.9 52.6,-3.32 48.46,-1.52 C 44.3307,0.270667 39.6307,1.17067 34.38,1.17067 C 29.3707,1.17067 24.62,0.250667 20.12,-1.58 C 15.6307,-3.42 11.9507,-6.24933 9.08,-10.08 C 6.22,-13.9093 4.79067,-18.6693 4.79067,-24.38 L 11.5307,-24.38 C 11.5307,-19.84 12.6307,-16.12 14.82,-13.2093 C 17.02,-10.3 19.84,-8.18933 23.3107,-6.88933 C 26.7707,-5.58 30.46,-4.92 34.38,-4.92 C 38.4707,-4.92 42.0707,-5.58933 45.1707,-6.90933 C 48.2707,-8.24 50.66,-10.1293 52.3507,-12.5693 C 54.04,-15.0093 54.88,-17.8093 54.88,-20.98 C 54.88,-24.18 54.2107,-26.88 52.8707,-29.0893 C 51.5307,-31.3 49.3,-33.2693 46.2,-35.0093 C 43.1,-36.7493 38.78,-38.46 33.2307,-40.14 Z "/>
				<path id="dp_path007" fill="white" d="M 100.08,-64.5693 C 106.171,-64.5693 110.82,-62.7093 114.031,-59 C 117.24,-55.2893 118.84,-49.3893 118.84,-41.3093 L 118.84,0 L 112.311,0 L 112.311,-41.3093 C 112.311,-47.56 111.14,-51.9893 108.78,-54.6093 C 106.42,-57.2293 102.98,-58.54 98.4507,-58.54 C 94.2,-58.54 90.58,-57.1 87.5707,-54.2293 C 84.56,-51.36 82.3507,-47.7893 80.9307,-43.54 L 80.9307,0 L 74.4,0 L 74.4,-90 L 80.9307,-90 L 80.9307,-52.7893 C 83.0307,-56.4693 85.74,-59.3493 89.04,-61.44 C 92.34,-63.5293 96.02,-64.5693 100.08,-64.5693 Z "/>
				<path id="dp_path008" fill="white" d="M 131.991,-32.64 C 131.991,-38.7693 133.08,-44.26 135.251,-49.1 C 137.431,-53.9493 140.5,-57.7293 144.471,-60.4693 C 148.44,-63.2 153.02,-64.5693 158.211,-64.5693 C 163.431,-64.5693 168.031,-63.2 172.02,-60.4693 C 176.011,-57.7293 179.091,-53.9493 181.271,-49.1 C 183.44,-44.26 184.531,-38.7693 184.531,-32.64 L 184.531,-30.76 C 184.531,-24.6293 183.44,-19.14 181.271,-14.3 C 179.091,-9.44933 176.031,-5.66 172.071,-2.92933 C 168.12,-0.2 163.54,1.17067 158.311,1.17067 C 153.091,1.17067 148.491,-0.2 144.5,-2.92933 C 140.511,-5.66 137.431,-9.44933 135.251,-14.3 C 133.08,-19.14 131.991,-24.6293 131.991,-30.76 Z M 138.52,-30.76 C 138.52,-26.04 139.291,-21.7 140.831,-17.7493 C 142.371,-13.8093 144.64,-10.66 147.631,-8.32 C 150.62,-5.98 154.18,-4.8 158.311,-4.8 C 162.411,-4.8 165.951,-5.98 168.92,-8.32 C 171.891,-10.66 174.151,-13.8093 175.691,-17.7493 C 177.231,-21.7 178,-26.04 178,-30.76 L 178,-32.64 C 178,-37.2893 177.22,-41.58 175.66,-45.5293 C 174.111,-49.4693 171.831,-52.64 168.84,-55.02 C 165.851,-57.4 162.3,-58.5893 158.211,-58.5893 C 154.111,-58.5893 150.571,-57.4 147.6,-55.02 C 144.631,-52.64 142.371,-49.4693 140.831,-45.5293 C 139.291,-41.58 138.52,-37.2893 138.52,-32.64 Z "/>
				<path id="dp_path009" fill="white" d="M 225.12,-57.48 C 223.451,-57.7493 222,-57.8893 220.771,-57.8893 C 216.531,-57.8893 213.031,-56.62 210.271,-54.08 C 207.52,-51.54 205.58,-48.0893 204.451,-43.7093 L 204.451,0 L 197.92,0 L 197.92,-63.4 L 204.291,-63.4 L 204.451,-53.44 C 206.08,-56.9493 208.291,-59.6893 211.06,-61.64 C 213.831,-63.5893 217.14,-64.5693 220.991,-64.5693 C 221.751,-64.5693 222.551,-64.5 223.38,-64.3693 C 224.211,-64.2293 224.871,-64.06 225.34,-63.8693 Z "/>
				<path id="dp_path010" fill="white" d="M 261.631,0.230667 C 260.871,0.510667 259.851,0.730667 258.56,0.910667 C 257.271,1.08 255.98,1.17067 254.671,1.17067 C 250.611,1.17067 247.451,-0.1 245.211,-2.64 C 242.96,-5.18 241.84,-9.44933 241.84,-15.4693 L 241.84,-57.66 L 231.06,-57.66 L 231.06,-63.4 L 241.84,-63.4 L 241.84,-79.6893 L 248.42,-79.6893 L 248.42,-63.4 L 260.54,-63.4 L 260.54,-57.66 L 248.42,-57.66 L 248.42,-15.4693 C 248.42,-11.4093 249.1,-8.64 250.46,-7.18 C 251.811,-5.70933 253.671,-4.98 256.031,-4.98 C 257.34,-4.98 259.111,-5.2 261.36,-5.62933 Z "/>
				<path id="dp_path011" fill="white" d="M 321.46,-6.08933 L 321.46,0 L 280.391,0 L 275.66,0 L 275.66,-85.3093 L 282.411,-85.3093 L 282.411,-6.08933 Z "/>
				<path id="dp_path012" fill="white" d="M 336.72,-86.48 C 338.1,-86.48 339.2,-86.04 340.011,-85.14 C 340.831,-84.24 341.24,-83.1093 341.24,-81.74 C 341.24,-80.4093 340.831,-79.3093 340.011,-78.4293 C 339.2,-77.5493 338.1,-77.1093 336.72,-77.1093 C 335.38,-77.1093 334.3,-77.5493 333.491,-78.4293 C 332.671,-79.3093 332.26,-80.4093 332.26,-81.74 C 332.26,-83.1093 332.671,-84.24 333.491,-85.14 C 334.3,-86.04 335.38,-86.48 336.72,-86.48 Z M 333.46,0 L 333.46,-63.4 L 339.931,-63.4 L 339.931,0 Z "/>
				<path id="dp_path013" fill="white" d="M 382.46,-64.5693 C 387.171,-64.5693 391.231,-63.2493 394.62,-60.62 C 398.011,-57.98 400.591,-54.24 402.371,-49.4 C 404.14,-44.5493 405.031,-38.8493 405.031,-32.2893 L 405.031,-31.0493 C 405.031,-24.7293 404.14,-19.1293 402.371,-14.2693 C 400.591,-9.4 398.011,-5.62 394.62,-2.9 C 391.231,-0.189333 387.211,1.17067 382.571,1.17067 C 378.36,1.17067 374.711,0.310667 371.611,-1.40933 C 368.511,-3.12933 365.96,-5.56933 363.971,-8.72933 L 363.64,0 L 357.551,0 L 357.551,-90 L 364.08,-90 L 364.08,-54.26 C 366.071,-57.58 368.6,-60.1293 371.66,-61.9 C 374.731,-63.68 378.331,-64.5693 382.46,-64.5693 Z M 398.451,-32.2893 C 398.451,-40.14 397.031,-46.46 394.18,-51.2693 C 391.34,-56.0693 387.011,-58.48 381.211,-58.48 C 376.711,-58.48 373.091,-57.28 370.331,-54.8693 C 367.58,-52.4693 365.491,-49.36 364.08,-45.5293 L 364.08,-16.88 C 365.56,-13.28 367.74,-10.3893 370.6,-8.2 C 373.471,-6.02 377.04,-4.92 381.32,-4.92 C 385.131,-4.92 388.32,-6.04933 390.891,-8.28933 C 393.471,-10.54 395.371,-13.62 396.6,-17.5493 C 397.831,-21.4693 398.451,-25.98 398.451,-31.0493 Z "/>
			</g>
			<g id="dp_dp014" transform="matrix(1,0,0,1,204.399,160.258)">
				<path id="dp_path015" fill="#5ba7fe" d="M 11.68,-12.716 C 8.67333,-13.5867 6.38667,-14.676 4.824,-15.9867 C 3.264,-17.296 2.48,-18.996 2.48,-21.0933 C 2.48,-22.5667 2.88,-23.8867 3.684,-25.06 C 4.484,-26.2293 5.61733,-27.1533 7.08,-27.8227 C 8.54667,-28.4933 10.2267,-28.8267 12.1307,-28.8267 C 14.2,-28.8267 15.9933,-28.4293 17.5107,-27.636 C 19.0267,-26.8427 20.1867,-25.7867 20.9867,-24.4733 C 21.7867,-23.156 22.1867,-21.7427 22.1867,-20.2333 L 18.38,-20.2333 C 18.38,-21.9 17.8533,-23.24 16.7973,-24.2467 C 15.744,-25.256 14.1867,-25.7627 12.1307,-25.7627 C 10.2133,-25.7627 8.764,-25.34 7.77333,-24.4933 C 6.784,-23.6467 6.29067,-22.5333 6.29067,-21.1533 C 6.29067,-20.3467 6.51733,-19.636 6.97333,-19.0227 C 7.43067,-18.4133 8.13733,-17.86 9.1,-17.3627 C 10.0667,-16.8693 11.3333,-16.4 12.9107,-15.956 C 15.0973,-15.3467 16.8733,-14.6427 18.2333,-13.8467 C 19.5933,-13.0533 20.604,-12.12 21.26,-11.0467 C 21.9173,-9.96933 22.2467,-8.696 22.2467,-7.22667 C 22.2467,-5.70267 21.84,-4.36667 21.0267,-3.21333 C 20.2107,-2.06 19.0573,-1.17333 17.56,-0.546667 C 16.06,0.0773333 14.3173,0.390667 12.324,0.390667 C 10.5133,0.390667 8.78667,0.0573333 7.14,-0.616 C 5.49333,-1.28667 4.15333,-2.27333 3.12667,-3.57333 C 2.09733,-4.876 1.584,-6.43333 1.584,-8.24267 L 5.37067,-8.24267 C 5.37067,-6.99333 5.68667,-5.94933 6.32,-5.116 C 6.95067,-4.28267 7.79067,-3.66667 8.83733,-3.26267 C 9.88667,-2.856 11.0507,-2.656 12.324,-2.656 C 14.264,-2.656 15.7667,-3.06 16.8373,-3.86667 C 17.904,-4.67333 18.4373,-5.78 18.4373,-7.18667 C 18.4373,-8.11333 18.2467,-8.88267 17.86,-9.50267 C 17.4773,-10.12 16.804,-10.68 15.84,-11.1827 C 14.8773,-11.6827 13.4907,-12.1933 11.68,-12.716 Z "/>
				<path id="dp_path016" fill="#5ba7fe" d="M 36.384,-21.5227 C 40.904,-21.5227 43.164,-18.9627 43.164,-13.8467 L 43.164,0 L 39.5107,0 L 39.5107,-13.8867 C 39.5107,-15.5 39.16,-16.6733 38.464,-17.4027 C 37.7667,-18.1333 36.7173,-18.496 35.3107,-18.496 C 34.1907,-18.496 33.184,-18.1893 32.2933,-17.58 C 31.4,-16.9667 30.6933,-16.1467 30.1733,-15.116 L 30.1733,0 L 26.52,0 L 26.52,-30 L 30.1733,-30 L 30.1733,-18.6333 C 30.944,-19.556 31.8533,-20.2693 32.9067,-20.7693 C 33.964,-21.2733 35.12,-21.5227 36.384,-21.5227 Z "/>
				<path id="dp_path017" fill="#5ba7fe" d="M 47.664,-10.78 C 47.664,-12.8267 48.0533,-14.6627 48.8373,-16.2893 C 49.6173,-17.916 50.7333,-19.196 52.1867,-20.1267 C 53.6373,-21.056 55.3267,-21.5227 57.2533,-21.5227 C 59.2067,-21.5227 60.9133,-21.056 62.3707,-20.1267 C 63.8307,-19.196 64.9507,-17.916 65.7307,-16.2893 C 66.5107,-14.6627 66.904,-12.8267 66.904,-10.78 L 66.904,-10.3333 C 66.904,-8.28667 66.5107,-6.456 65.7307,-4.83333 C 64.9507,-3.21333 63.8333,-1.936 62.38,-1.00667 C 60.9307,-0.0733333 59.2333,0.390667 57.2933,0.390667 C 55.3533,0.390667 53.6573,-0.0733333 52.204,-1.00667 C 50.7533,-1.936 49.6333,-3.21333 48.8467,-4.83333 C 48.0573,-6.456 47.664,-8.28667 47.664,-10.3333 Z M 51.3173,-10.3333 C 51.3173,-8.9 51.54,-7.58933 51.9907,-6.40667 C 52.44,-5.22 53.1133,-4.28 54.0107,-3.58267 C 54.9107,-2.88667 56.004,-2.54 57.2933,-2.54 C 58.5707,-2.54 59.6573,-2.88667 60.5533,-3.58267 C 61.4533,-4.28 62.1267,-5.22 62.5773,-6.40667 C 63.024,-7.58933 63.2507,-8.9 63.2507,-10.3333 L 63.2507,-10.78 C 63.2507,-12.2133 63.02,-13.5227 62.5667,-14.7067 C 62.1107,-15.8933 61.4333,-16.836 60.5333,-17.54 C 59.6373,-18.2427 58.544,-18.5933 57.2533,-18.5933 C 55.9773,-18.5933 54.8933,-18.2427 54,-17.54 C 53.1107,-16.836 52.44,-15.8933 51.9907,-14.7067 C 51.54,-13.5227 51.3173,-12.2133 51.3173,-10.78 Z "/>
				<path id="dp_path018" fill="#5ba7fe" d="M 80.06,-21.5227 C 80.2933,-21.5227 80.5867,-21.4933 80.94,-21.436 C 81.2907,-21.376 81.5333,-21.316 81.664,-21.2493 L 81.664,-17.9093 C 81.104,-18.0133 80.5107,-18.0667 79.8867,-18.0667 C 78.6867,-18.0667 77.6867,-17.8 76.8867,-17.2667 C 76.0867,-16.7333 75.484,-15.9827 75.08,-15.02 L 75.08,0 L 71.4267,0 L 71.4267,-21.1333 L 74.984,-21.1333 L 75.06,-18.7293 C 75.6067,-19.616 76.2973,-20.3027 77.1307,-20.7893 C 77.964,-21.28 78.94,-21.5227 80.06,-21.5227 Z "/>
				<path id="dp_path019" fill="#5ba7fe" d="M 94.9,0 C 94.0667,0.26 93.1373,0.390667 92.1067,0.390667 C 90.6373,0.390667 89.4533,-0.0533333 88.56,-0.936 C 87.6707,-1.82267 87.224,-3.26267 87.224,-5.25333 L 87.224,-18.38 L 83.3773,-18.38 L 83.3773,-21.1333 L 87.224,-21.1333 L 87.224,-26.2693 L 90.8773,-26.2693 L 90.8773,-21.1333 L 94.82,-21.1333 L 94.82,-18.38 L 90.8773,-18.38 L 90.8773,-5.23333 C 90.8773,-4.23333 91.084,-3.556 91.5,-3.21333 C 91.9173,-2.86667 92.484,-2.696 93.2,-2.696 C 93.4733,-2.696 93.7733,-2.716 94.1,-2.76267 C 94.424,-2.80933 94.684,-2.86 94.88,-2.90933 Z "/>
				<path id="dp_path020" fill="white" d="M 115.971,-6.68 C 115.904,-5.44267 115.48,-4.28 114.7,-3.19333 C 113.917,-2.10667 112.893,-1.236 111.624,-0.586667 C 110.353,0.0666667 108.991,0.390667 107.531,0.390667 C 105.487,0.390667 103.76,-0.08 102.347,-1.02667 C 100.933,-1.96933 99.8733,-3.24 99.1707,-4.83333 C 98.4707,-6.42933 98.1173,-8.20267 98.1173,-10.156 L 98.1173,-10.976 C 98.1173,-12.9293 98.4707,-14.7027 99.1707,-16.3 C 99.8733,-17.8933 100.933,-19.1627 102.347,-20.1067 C 103.76,-21.0493 105.487,-21.5227 107.531,-21.5227 C 109.147,-21.5227 110.58,-21.1893 111.837,-20.5267 C 113.093,-19.8627 114.08,-18.9493 114.797,-17.7827 C 115.513,-16.616 115.904,-15.3133 115.971,-13.8667 L 112.513,-13.8667 C 112.447,-14.74 112.2,-15.536 111.771,-16.26 C 111.34,-16.9827 110.76,-17.5533 110.031,-17.9693 C 109.304,-18.3867 108.471,-18.5933 107.531,-18.5933 C 106.137,-18.5933 105.013,-18.2333 104.153,-17.5093 C 103.293,-16.7867 102.68,-15.856 102.317,-14.716 C 101.953,-13.576 101.771,-12.3293 101.771,-10.976 L 101.771,-10.156 C 101.771,-7.99333 102.217,-6.18267 103.107,-4.72667 C 104,-3.26667 105.473,-2.54 107.531,-2.54 C 108.377,-2.54 109.171,-2.716 109.904,-3.076 C 110.64,-3.43333 111.244,-3.92933 111.711,-4.56 C 112.18,-5.19333 112.447,-5.9 112.513,-6.68 Z "/>
				<path id="dp_path021" fill="white" d="M 136.544,-21.1333 L 136.544,0 L 133.067,0 L 133.007,-2.08933 C 131.604,-0.436 129.537,0.390667 126.817,0.390667 C 124.644,0.390667 122.944,-0.246667 121.72,-1.52267 C 120.493,-2.8 119.884,-4.79333 119.884,-7.5 L 119.884,-21.1333 L 123.537,-21.1333 L 123.537,-7.46 C 123.537,-5.70267 123.897,-4.46267 124.62,-3.74 C 125.344,-3.016 126.271,-2.656 127.404,-2.656 C 130.137,-2.656 131.967,-3.68 132.891,-5.72267 L 132.891,-21.1333 Z "/>
				<path id="dp_path022" fill="white" d="M 151.007,0 C 150.173,0.26 149.244,0.390667 148.213,0.390667 C 146.744,0.390667 145.56,-0.0533333 144.667,-0.936 C 143.777,-1.82267 143.331,-3.26267 143.331,-5.25333 L 143.331,-18.38 L 139.484,-18.38 L 139.484,-21.1333 L 143.331,-21.1333 L 143.331,-26.2693 L 146.984,-26.2693 L 146.984,-21.1333 L 150.927,-21.1333 L 150.927,-18.38 L 146.984,-18.38 L 146.984,-5.23333 C 146.984,-4.23333 147.191,-3.556 147.607,-3.21333 C 148.024,-2.86667 148.591,-2.696 149.307,-2.696 C 149.58,-2.696 149.88,-2.716 150.207,-2.76267 C 150.531,-2.80933 150.791,-2.86 150.987,-2.90933 Z "/>
				<path id="dp_path023" fill="#6db1ff" d="M 182.913,-3.04667 L 182.913,0 L 168.693,0 L 165.647,0 L 165.647,-28.436 L 169.437,-28.436 L 169.437,-3.04667 Z "/>
				<path id="dp_path024" fill="#6db1ff" d="M 188.797,-28.8267 C 189.473,-28.8267 190.004,-28.6333 190.387,-28.2427 C 190.771,-27.8493 190.964,-27.356 190.964,-26.756 C 190.964,-26.1733 190.771,-25.6867 190.387,-25.3027 C 190.004,-24.92 189.473,-24.7267 188.797,-24.7267 C 188.12,-24.7267 187.593,-24.92 187.224,-25.3027 C 186.853,-25.6867 186.667,-26.1733 186.667,-26.756 C 186.667,-27.356 186.853,-27.8493 187.224,-28.2427 C 187.593,-28.6333 188.12,-28.8267 188.797,-28.8267 Z M 186.94,0 L 186.94,-21.1333 L 190.593,-21.1333 L 190.593,0 Z "/>
				<path id="dp_path025" fill="#6db1ff" d="M 206.004,-21.5227 C 207.733,-21.5227 209.22,-21.076 210.457,-20.1867 C 211.693,-19.2933 212.633,-18.036 213.277,-16.416 C 213.924,-14.7933 214.244,-12.9027 214.244,-10.7427 L 214.244,-10.3333 C 214.244,-8.26267 213.924,-6.416 213.277,-4.796 C 212.633,-3.17333 211.693,-1.90267 210.457,-0.986667 C 209.22,-0.0693333 207.747,0.390667 206.044,0.390667 C 203.373,0.390667 201.311,-0.54 199.851,-2.40267 L 199.673,0 L 196.333,0 L 196.333,-30 L 199.987,-30 L 199.987,-18.8667 C 201.433,-20.636 203.437,-21.5227 206.004,-21.5227 Z M 210.593,-10.7427 C 210.593,-13.06 210.153,-14.9333 209.273,-16.356 C 208.397,-17.7827 207,-18.496 205.084,-18.496 C 203.847,-18.496 202.811,-18.2 201.971,-17.6067 C 201.131,-17.016 200.471,-16.2093 199.987,-15.196 L 199.987,-5.956 C 200.484,-4.95333 201.157,-4.15333 202.011,-3.55333 C 202.86,-2.956 203.9,-2.656 205.124,-2.656 C 206.96,-2.656 208.331,-3.36933 209.233,-4.796 C 210.14,-6.22 210.593,-8.06667 210.593,-10.3333 Z "/>
				<path id="dp_path026" fill="white" d="M 227.473,-21.5227 C 227.707,-21.5227 228,-21.4933 228.353,-21.436 C 228.704,-21.376 228.947,-21.316 229.077,-21.2493 L 229.077,-17.9093 C 228.517,-18.0133 227.924,-18.0667 227.3,-18.0667 C 226.1,-18.0667 225.1,-17.8 224.3,-17.2667 C 223.5,-16.7333 222.897,-15.9827 222.493,-15.02 L 222.493,0 L 218.84,0 L 218.84,-21.1333 L 222.397,-21.1333 L 222.473,-18.7293 C 223.02,-19.616 223.711,-20.3027 224.544,-20.7893 C 225.377,-21.28 226.353,-21.5227 227.473,-21.5227 Z "/>
				<path id="dp_path027" fill="white" d="M 247.86,-4.60933 C 247.86,-3.86667 247.927,-3.10267 248.057,-2.31333 C 248.187,-1.52667 248.371,-0.86 248.604,-0.313333 L 248.604,0 L 244.793,0 C 244.573,-0.506667 244.404,-1.24267 244.287,-2.20667 C 243.557,-1.42667 242.684,-0.796 241.66,-0.322667 C 240.637,0.153333 239.513,0.390667 238.291,0.390667 C 236.884,0.390667 235.637,0.113333 234.551,-0.44 C 233.464,-0.993333 232.624,-1.74667 232.031,-2.696 C 231.44,-3.64667 231.144,-4.7 231.144,-5.86 C 231.144,-7.356 231.531,-8.62667 232.304,-9.66667 C 233.08,-10.7093 234.18,-11.4933 235.607,-12.02 C 237.031,-12.5493 238.713,-12.8133 240.653,-12.8133 L 244.211,-12.8133 L 244.211,-14.4933 C 244.211,-15.78 243.827,-16.7933 243.067,-17.5293 C 242.304,-18.2667 241.207,-18.6333 239.777,-18.6333 C 238.904,-18.6333 238.12,-18.48 237.431,-18.1733 C 236.74,-17.8667 236.204,-17.456 235.82,-16.9427 C 235.437,-16.4293 235.244,-15.8733 235.244,-15.2733 L 231.591,-15.2733 C 231.591,-16.3027 231.944,-17.3 232.647,-18.2627 C 233.351,-19.2267 234.34,-20.0093 235.613,-20.616 C 236.891,-21.22 238.351,-21.5227 239.991,-21.5227 C 241.553,-21.5227 242.924,-21.26 244.1,-20.7333 C 245.28,-20.2067 246.2,-19.4093 246.867,-18.3493 C 247.531,-17.2893 247.86,-15.9893 247.86,-14.4533 Z M 238.817,-2.73333 C 239.651,-2.73333 240.431,-2.88 241.153,-3.17333 C 241.873,-3.46667 242.497,-3.85333 243.017,-4.336 C 243.54,-4.816 243.937,-5.34 244.211,-5.9 L 244.211,-10.2733 L 241.24,-10.2733 C 239.157,-10.2733 237.56,-9.94267 236.453,-9.28667 C 235.347,-8.62933 234.793,-7.656 234.793,-6.36667 C 234.793,-5.676 234.951,-5.06 235.264,-4.51333 C 235.577,-3.96667 236.031,-3.53333 236.631,-3.21333 C 237.231,-2.89333 237.96,-2.73333 238.817,-2.73333 Z "/>
				<path id="dp_path028" fill="white" d="M 262.14,-21.5227 C 262.373,-21.5227 262.667,-21.4933 263.02,-21.436 C 263.371,-21.376 263.613,-21.316 263.744,-21.2493 L 263.744,-17.9093 C 263.184,-18.0133 262.591,-18.0667 261.967,-18.0667 C 260.767,-18.0667 259.767,-17.8 258.967,-17.2667 C 258.167,-16.7333 257.564,-15.9827 257.16,-15.02 L 257.16,0 L 253.507,0 L 253.507,-21.1333 L 257.064,-21.1333 L 257.14,-18.7293 C 257.687,-19.616 258.377,-20.3027 259.211,-20.7893 C 260.044,-21.28 261.02,-21.5227 262.14,-21.5227 Z "/>
				<path id="dp_path029" fill="white" d="M 282.757,-21.1333 L 274.28,3.26 C 273.76,4.68 273.007,5.91333 272.027,6.964 C 271.044,8.01067 269.704,8.53333 268.013,8.53333 C 267.737,8.53333 267.384,8.5 266.947,8.42667 C 266.511,8.35733 266.184,8.28667 265.96,8.224 L 265.96,5.31333 C 266.104,5.34 266.267,5.36 266.451,5.38 C 266.631,5.4 266.793,5.41067 266.937,5.41067 C 268.173,5.41067 269.133,5.15333 269.817,4.64 C 270.504,4.124 271.06,3.224 271.487,1.93333 L 272.291,-0.233333 L 264.751,-21.1333 L 268.733,-21.1333 L 273.971,-5.31333 L 278.871,-21.1333 Z "/>
			</g>
</svg>