<svg width="160" height="160" viewBox="0 0 160 160" version="1.1" xmlns="http://www.w3.org/2000/svg" xmlns:xlink="http://www.w3.org/1999/xlink">
<title>Logo v2</title>
<desc>Created using Figma</desc>
<g id="Canvas" transform="matrix(4 0 0 4 1608 1596)">
<g id="Logo v2">
<g id="Rectangle">
<use xlink:href="#path0_fill" transform="translate(-402 -399)" fill="#0060D1"/>
</g>
<g id="Ellipse">
<use xlink:href="#path1_fill" transform="translate(-392.47 -386.5)" fill="#0A0A0A" fill-opacity="0.39"/>
</g>
<g id="ic_keyboard_black_24px">
<g id="Vector">
<use xlink:href="#path2_fill" transform="translate(-392.833 -386.583)" fill="#FFFFFF"/>
</g>
</g>
</g>
</g>
<defs>
<path id="path0_fill" d="M 0 20C 0 8.95431 8.95431 0 20 0C 31.0457 0 40 8.95431 40 20C 40 31.0457 31.0457 40 20 40C 8.95431 40 0 31.0457 0 20Z"/>
<path id="path1_fill" d="M 30.47 8.5C 29.97 18.5 22.47 25.5 14.97 27L 0.970001 15C -5.9302 6.37478 26.47 25.5 19.97 0L 30.47 8.5Z"/>
<path id="path2_fill" d="M 19.5 0L 2.16667 0C 0.975 0 0.0108333 0.975 0.0108333 2.16667L 0 13C 0 14.1917 0.975 15.1667 2.16667 15.1667L 19.5 15.1667C 20.6917 15.1667 21.6667 14.1917 21.6667 13L 21.6667 2.16667C 21.6667 0.975 20.6917 0 19.5 0ZM 9.75 3.25L 11.9167 3.25L 11.9167 5.41667L 9.75 5.41667L 9.75 3.25ZM 9.75 6.5L 11.9167 6.5L 11.9167 8.66667L 9.75 8.66667L 9.75 6.5ZM 6.5 3.25L 8.66667 3.25L 8.66667 5.41667L 6.5 5.41667L 6.5 3.25ZM 6.5 6.5L 8.66667 6.5L 8.66667 8.66667L 6.5 8.66667L 6.5 6.5ZM 5.41667 8.66667L 3.25 8.66667L 3.25 6.5L 5.41667 6.5L 5.41667 8.66667ZM 5.41667 5.41667L 3.25 5.41667L 3.25 3.25L 5.41667 3.25L 5.41667 5.41667ZM 15.1667 13L 6.5 13L 6.5 10.8333L 15.1667 10.8333L 15.1667 13ZM 15.1667 8.66667L 13 8.66667L 13 6.5L 15.1667 6.5L 15.1667 8.66667ZM 15.1667 5.41667L 13 5.41667L 13 3.25L 15.1667 3.25L 15.1667 5.41667ZM 18.4167 8.66667L 16.25 8.66667L 16.25 6.5L 18.4167 6.5L 18.4167 8.66667ZM 18.4167 5.41667L 16.25 5.41667L 16.25 3.25L 18.4167 3.25L 18.4167 5.41667Z"/>
</defs>
</svg>
